<?xml version="1.0" encoding="UTF-8" standalone="no"?>
<svg
   width="145"
   height="135"
   viewBox="0 0 145 135"
   fill="none"
   version="1.1"
   id="svg518"
   sodipodi:docname="SyntharaLogo.svg"
   inkscape:version="1.2.2 (732a01da63, 2022-12-09)"
   xmlns:inkscape="http://www.inkscape.org/namespaces/inkscape"
   xmlns:sodipodi="http://sodipodi.sourceforge.net/DTD/sodipodi-0.dtd"
   xmlns="http://www.w3.org/2000/svg"
   xmlns:svg="http://www.w3.org/2000/svg">
  <defs
     id="defs522" />
  <sodipodi:namedview
     id="namedview520"
     pagecolor="#ffffff"
     bordercolor="#000000"
     borderopacity="0.25"
     inkscape:showpageshadow="2"
     inkscape:pageopacity="0.0"
     inkscape:pagecheckerboard="0"
     inkscape:deskcolor="#d1d1d1"
     showgrid="false"
     inkscape:zoom="6.2444444"
     inkscape:cx="72.624555"
     inkscape:cy="67.660142"
     inkscape:window-width="1920"
     inkscape:window-height="1001"
     inkscape:window-x="887"
     inkscape:window-y="2151"
     inkscape:window-maximized="1"
     inkscape:current-layer="svg518" />
  <path
     fill-rule="evenodd"
     clip-rule="evenodd"
     d="M16.3744 75.4271C10.2532 69.3059 10.2532 59.3816 16.3744 53.2604L58.5515 11.0833C64.6727 4.96208 74.5971 4.96206 80.7183 11.0832L83.6784 14.0434L78.8973 18.8245L75.9372 15.8643C72.4565 12.3836 66.8132 12.3836 63.3326 15.8643L21.1555 58.0414C17.6748 61.5221 17.6748 67.1654 21.1555 70.6461L24.1156 73.6062L19.3345 78.3873L16.3744 75.4271Z"
     fill="#F26437"
     id="path504" />
  <path
     fill-rule="evenodd"
     clip-rule="evenodd"
     d="M128.928 59.5082C135.05 65.6294 135.05 75.5537 128.928 81.6749L86.7512 123.852C80.6301 129.973 70.7057 129.973 64.5845 123.852L61.6243 120.892L66.4054 116.111L69.3655 119.071C72.8462 122.552 78.4895 122.552 81.9702 119.071L124.147 76.8939C127.628 73.4132 127.628 67.7699 124.147 64.2892L121.187 61.3291L125.968 56.548L128.928 59.5082Z"
     fill="#F26437"
     id="path506" />
  <path
     d="M110.294 11.6269C113.455 11.6269 116.017 9.06441 116.017 5.90342C116.017 2.74242 113.455 0.179932 110.294 0.179932C107.133 0.179932 104.57 2.74242 104.57 5.90342C104.57 6.16217 104.588 6.4169 104.621 6.66655L90.3677 20.9197L95.1488 25.7008L109.307 11.5422C109.628 11.5979 109.958 11.6269 110.294 11.6269Z"
     fill="white"
     id="path508"
     style="fill:#000000" />
  <path
     d="M118.658 49.31L125.021 42.9474H134.511C135.537 44.4863 137.288 45.5001 139.277 45.5001C142.438 45.5001 145 42.9376 145 39.7766C145 36.6156 142.438 34.0531 139.277 34.0531C137.475 34.0531 135.868 34.8852 134.819 36.1859H122.22L113.877 44.5289L118.658 49.31Z"
     fill="white"
     id="path510"
     style="fill:#000000" />
  <path
     d="M108.93 25.9453C108.93 26.1061 108.936 26.2652 108.949 26.4226L94.8017 40.5701H64.1704C55.7119 40.5701 48.855 47.4271 48.855 55.8855C48.855 64.344 55.7119 71.201 64.1704 71.201H81.3645C85.9903 71.201 89.7403 74.9509 89.7403 79.5768C89.7403 84.2026 85.9903 87.9526 81.3645 87.9526H47.3901L31.9709 103.372C31.5808 103.288 31.1759 103.244 30.7608 103.244C27.5998 103.244 25.0373 105.806 25.0373 108.967C25.0373 112.128 27.5998 114.691 30.7608 114.691C33.9218 114.691 36.4842 112.128 36.4842 108.967C36.4842 108.791 36.4763 108.616 36.4607 108.444L50.1908 94.714H81.3645C89.7245 94.714 96.5017 87.9368 96.5017 79.5768C96.5017 71.2167 89.7245 64.4395 81.3645 64.4395H64.1704C59.4461 64.4395 55.6164 60.6098 55.6164 55.8855C55.6164 51.1613 59.4461 47.3316 64.1704 47.3316H97.6024L113.402 31.5317C113.805 31.6215 114.223 31.6688 114.653 31.6688C117.814 31.6688 120.377 29.1063 120.377 25.9453C120.377 22.7843 117.814 20.2218 114.653 20.2218C111.492 20.2218 108.93 22.7843 108.93 25.9453Z"
     fill="white"
     id="path512"
     style="fill:#000000" />
  <path
     d="M19.9793 91.6805L26.342 85.3179L31.1231 90.099L22.7799 98.442H10.3591C9.319 99.8756 7.63012 100.808 5.72348 100.808C2.56249 100.808 0 98.2454 0 95.0844C0 91.9234 2.56249 89.3609 5.72348 89.3609C7.60955 89.3609 9.28255 90.2732 10.3253 91.6805H19.9793Z"
     fill="white"
     id="path514"
     style="fill:#000000" />
  <path
     d="M40.4299 128.724C40.4299 128.466 40.4127 128.211 40.3795 127.961L54.6325 113.708L49.8514 108.927L35.6929 123.086C35.3724 123.03 35.0428 123.001 34.7064 123.001C31.5454 123.001 28.9829 125.563 28.9829 128.724C28.9829 131.885 31.5454 134.448 34.7064 134.448C37.8674 134.448 40.4299 131.885 40.4299 128.724Z"
     fill="white"
     id="path516"
     style="fill:#000000" />
</svg>
